999
FreeCAD v1.0 39319 (Git)
  0
SECTION
  2
HEADER
  9
$ACADVER
  1
AC1014
  9
$ACADMAINTVER
 70
     9
  9
$DWGCODEPAGE
  3
ANSI_1252
  9
$TEXTSTYLE
  7
STANDARD
  9
$DIMSTYLE
  2
STANDARD
  9
$DIMTXSTY
  7
STANDARD
  9
$CMLSTYLE
  2
STANDARD
  9
$LUNITS
 70
2
  9
$INSUNITS
 70
4
  9
$PEXTMAX
 10
50
 20
50
 30
50
  9
$PEXTMIN
 10
0
 20
0
 30
0
  9
$HANDSEED
  5
FFFF
  0
ENDSEC
  0
SECTION
  2
CLASSES
  0
CLASS
  1
ACDBDICTIONARYWDFLT
  2
AcDbDictionaryWithDefault
  3
ObjectDBX Classes
 90
        0
280
     0
281
     0
  0
CLASS
  1
XRECORD
  2
AcDbXrecord
  3
ObjectDBX Classes
 90
        0
280
     0
281
     0
  0
CLASS
  1
LWPOLYLINE
  2
AcDbPolyline
  3
ObjectDBX Classes
 90
        0
280
     0
281
     1
  0
ENDSEC
  0
SECTION
  2
TABLES
  0
TABLE
  2
VPORT
  5
20
330
0
100
AcDbSymbolTable
 70
     1
  0
VPORT
  5
21
330
20
100
AcDbSymbolTableRecord
100
AcDbViewportTableRecord
  2
*ACTIVE
 70
     0
  0
ENDTAB
  0
TABLE
  2
LTYPE
  5
22
330
0
100
AcDbSymbolTable
 70
     1
  0
LTYPE
  5
23
330
21
100
AcDbSymbolTableRecord
100
AcDbLinetypeTableRecord
  2
BYBLOCK
 70
     0
  3

 72
    65
 73
     0
 40
0.0
  0
LTYPE
  5
24
330
21
100
AcDbSymbolTableRecord
100
AcDbLinetypeTableRecord
  2
BYLAYER
 70
     0
  3

 72
    65
 73
     0
 40
0.0
  0
LTYPE
  5
25
330
21
100
AcDbSymbolTableRecord
100
AcDbLinetypeTableRecord
  2
CONTINUOUS
 70
     0
  3
Solid line
 72
    65
 73
     0
 40
0.0
  0
ENDTAB
  0
TABLE
  2
LAYER
  5
A8A
330
0
100
AcDbSymbolTable
 70
4
  0
LAYER
  5
A8B
330
A8A
100
AcDbSymbolTableRecord
100
AcDbLayerTableRecord
  2
0
 70
   0
 62
   7
  6
CONTINUOUS
  0
LAYER
  5
A8C
330
A8A
100
AcDbSymbolTableRecord
100
AcDbLayerTableRecord
  2
View012
 70
    0
 62
    7
  6
CONTINUOUS
  0
LAYER
  5
A8D
330
A8A
100
AcDbSymbolTableRecord
100
AcDbLayerTableRecord
  2
View013
 70
    0
 62
    7
  6
CONTINUOUS
  0
LAYER
  5
A8E
330
A8A
100
AcDbSymbolTableRecord
100
AcDbLayerTableRecord
  2
View014
 70
    0
 62
    7
  6
CONTINUOUS
  0
ENDTAB
  0
TABLE
  2
STYLE
  5
70
330
0
100
AcDbSymbolTable
 70
     2
  0
STYLE
  5
71
330
70
100
AcDbSymbolTableRecord
100
AcDbTextStyleTableRecord
  2
STANDARD
 70
     0
 40
0.0
 41
1.0
 50
0.0
 71
     0
 42
2.5
  3
arial.ttf
  4

  0
STYLE
  5
72
330
70
100
AcDbSymbolTableRecord
100
AcDbTextStyleTableRecord
  2
ANNOTATIVE
 70
     0
 40
0.0
 41
1.0
 50
0.0
 71
     0
 42
2.5
  3
arial.ttf
  4

  0
ENDTAB
  0
TABLE
  2
VIEW
  5
73
330
0
100
AcDbSymbolTable
 70
     0
  0
ENDTAB
  0
TABLE
  2
UCS
  5
74
330
0
100
AcDbSymbolTable
 70
     0
  0
ENDTAB
  0
TABLE
  2
APPID
  5
75
330
0
100
AcDbSymbolTable
 70
     2
  0
APPID
  5
76
330
75
100
AcDbSymbolTableRecord
100
AcDbRegAppTableRecord
  2
ACAD
 70
     0
  0
APPID
  5
77
330
75
100
AcDbSymbolTableRecord
100
AcDbRegAppTableRecord
  2
ACADANNOTATIVE
 70
     0
  0
ENDTAB
  0
TABLE
  2
DIMSTYLE
  5
78
330
0
100
AcDbSymbolTable
 70
     2
  0
DIMSTYLE
105
79
330
78
100
AcDbSymbolTableRecord
100
AcDbDimStyleTableRecord
  2
STANDARD
 70
     0
  3

  4

  5

  6

  7

 40
0.0
 41
2.5
 42
0.625
 43
3.75
 44
1.25
 45
0.0
 46
0.0
 47
0.0
 48
0.0
140
2.5
141
2.5
142
0.0
143
0.03937007874016
144
1.0
145
0.0
146
1.0
147
0.625
 71
     0
 72
     0
 73
     0
 74
     0
 75
     0
 76
     0
 77
     1
 78
     8
170
     0
171
     3
172
     1
173
     0
174
     0
175
     0
176
     0
177
     0
178
     0
270
     2
271
     2
272
     2
273
     2
274
     3
340
71
275
     0
280
     0
281
     0
282
     0
283
     0
284
     8
285
     0
286
     0
287
     3
288
     0
  0
ENDTAB
  0
TABLE
  2
BLOCK_RECORD
  5
A01
330
0
100
AcDbSymbolTable
  70
5
  0
BLOCK_RECORD
  5
A02
330
A01
100
AcDbSymbolTableRecord
100
AcDbBlockTableRecord
  2
*MODEL_SPACE
  0
BLOCK_RECORD
  5
A03
330
A01
100
AcDbSymbolTableRecord
100
AcDbBlockTableRecord
  2
*PAPER_SPACE
  0
ENDTAB
  0
ENDSEC
  0
SECTION
  2
BLOCKS
  0
BLOCK
  5
A04
330
A02
100
AcDbEntity
  8
0
100
AcDbBlockBegin
  2
*MODEL_SPACE
 70
   0
 10
0
 20
0
 30
0
  3
*MODEL_SPACE
  1
 
  0
ENDBLK
  5
A05
330
A02
100
AcDbEntity
  8
0
100
AcDbBlockEnd
  0
BLOCK
  5
A06
330
A03
100
AcDbEntity
 67
1
  8
0
100
AcDbBlockBegin
  2
*PAPER_SPACE
 70
   0
 10
0
 20
0
 30
0
  3
*PAPER_SPACE
  1
 
  0
ENDBLK
  5
A07
330
A03
100
AcDbEntity
 67
    1
  8
0
100
AcDbBlockEnd
  0
ENDSEC
  0
SECTION
  2
ENTITIES
  0
LINE
  5
A08
330
A02
100
AcDbEntity
  8
View012
100
AcDbLine
 10
8.159477866
 20
170.000000000
 30
0.000000000
 11
8.159477866
 21
40.000000000
 31
0.000000000
  0
LINE
  5
A09
330
A02
100
AcDbEntity
  8
View012
100
AcDbLine
 10
8.159477866
 20
40.000000000
 30
0.000000000
 11
108.159477866
 21
40.000000000
 31
0.000000000
  0
LINE
  5
A0A
330
A02
100
AcDbEntity
  8
View012
100
AcDbLine
 10
108.159477866
 20
40.000000000
 30
0.000000000
 11
108.159477866
 21
170.000000000
 31
0.000000000
  0
LINE
  5
A0B
330
A02
100
AcDbEntity
  8
View012
100
AcDbLine
 10
108.159477866
 20
170.000000000
 30
0.000000000
 11
8.159477866
 21
170.000000000
 31
0.000000000
  0
ARC
  5
A0C
330
A02
100
AcDbEntity
  8
View012
100
AcDbCircle
 10
58.159477866
 20
137.500000000
 30
0.000000000
 40
2.000000000
100
AcDbArc
 50
0.000000000
 51
180.000000000
  0
LINE
  5
A0D
330
A02
100
AcDbEntity
  8
View012
100
AcDbLine
 10
56.159477866
 20
137.500000000
 30
0.000000000
 11
56.159477866
 21
72.500000000
 31
0.000000000
  0
ARC
  5
A0E
330
A02
100
AcDbEntity
  8
View012
100
AcDbCircle
 10
58.159477866
 20
72.500000000
 30
0.000000000
 40
2.000000000
100
AcDbArc
 50
180.000000000
 51
0.000000000
  0
LINE
  5
A0F
330
A02
100
AcDbEntity
  8
View012
100
AcDbLine
 10
60.159477866
 20
137.500000000
 30
0.000000000
 11
60.159477866
 21
72.500000000
 31
0.000000000
  0
LINE
  5
A10
330
A02
100
AcDbEntity
  8
View012
100
AcDbLine
 10
36.159477866
 20
137.500000000
 30
0.000000000
 11
36.159477866
 21
72.500000000
 31
0.000000000
  0
ARC
  5
A11
330
A02
100
AcDbEntity
  8
View012
100
AcDbCircle
 10
38.159477866
 20
72.500000000
 30
0.000000000
 40
2.000000000
100
AcDbArc
 50
180.000000000
 51
0.000000000
  0
LINE
  5
A12
330
A02
100
AcDbEntity
  8
View012
100
AcDbLine
 10
40.159477866
 20
137.500000000
 30
0.000000000
 11
40.159477866
 21
72.500000000
 31
0.000000000
  0
ARC
  5
A13
330
A02
100
AcDbEntity
  8
View012
100
AcDbCircle
 10
38.159477866
 20
137.500000000
 30
0.000000000
 40
2.000000000
100
AcDbArc
 50
0.000000000
 51
180.000000000
  0
LINE
  5
A14
330
A02
100
AcDbEntity
  8
View012
100
AcDbLine
 10
42.826144533
 20
137.500000000
 30
0.000000000
 11
42.826144533
 21
72.500000000
 31
0.000000000
  0
ARC
  5
A15
330
A02
100
AcDbEntity
  8
View012
100
AcDbCircle
 10
44.826144533
 20
72.500000000
 30
0.000000000
 40
2.000000000
100
AcDbArc
 50
180.000000000
 51
0.000000000
  0
LINE
  5
A16
330
A02
100
AcDbEntity
  8
View012
100
AcDbLine
 10
46.826144533
 20
137.500000000
 30
0.000000000
 11
46.826144533
 21
72.500000000
 31
0.000000000
  0
ARC
  5
A17
330
A02
100
AcDbEntity
  8
View012
100
AcDbCircle
 10
44.826144533
 20
137.500000000
 30
0.000000000
 40
2.000000000
100
AcDbArc
 50
0.000000000
 51
180.000000000
  0
LINE
  5
A18
330
A02
100
AcDbEntity
  8
View012
100
AcDbLine
 10
49.492811199
 20
137.500000000
 30
0.000000000
 11
49.492811199
 21
72.500000000
 31
0.000000000
  0
ARC
  5
A19
330
A02
100
AcDbEntity
  8
View012
100
AcDbCircle
 10
51.492811199
 20
72.500000000
 30
0.000000000
 40
2.000000000
100
AcDbArc
 50
180.000000000
 51
0.000000000
  0
LINE
  5
A1A
330
A02
100
AcDbEntity
  8
View012
100
AcDbLine
 10
53.492811199
 20
137.500000000
 30
0.000000000
 11
53.492811199
 21
72.500000000
 31
0.000000000
  0
ARC
  5
A1B
330
A02
100
AcDbEntity
  8
View012
100
AcDbCircle
 10
51.492811199
 20
137.500000000
 30
0.000000000
 40
2.000000000
100
AcDbArc
 50
0.000000000
 51
180.000000000
  0
ARC
  5
A1C
330
A02
100
AcDbEntity
  8
View012
100
AcDbCircle
 10
64.826144533
 20
137.500000000
 30
0.000000000
 40
2.000000000
100
AcDbArc
 50
0.000000000
 51
180.000000000
  0
LINE
  5
A1D
330
A02
100
AcDbEntity
  8
View012
100
AcDbLine
 10
62.826144533
 20
137.500000000
 30
0.000000000
 11
62.826144533
 21
72.500000000
 31
0.000000000
  0
ARC
  5
A1E
330
A02
100
AcDbEntity
  8
View012
100
AcDbCircle
 10
64.826144533
 20
72.500000000
 30
0.000000000
 40
2.000000000
100
AcDbArc
 50
180.000000000
 51
0.000000000
  0
LINE
  5
A1F
330
A02
100
AcDbEntity
  8
View012
100
AcDbLine
 10
66.826144533
 20
137.500000000
 30
0.000000000
 11
66.826144533
 21
72.500000000
 31
0.000000000
  0
ARC
  5
A20
330
A02
100
AcDbEntity
  8
View012
100
AcDbCircle
 10
71.492811199
 20
137.500000000
 30
0.000000000
 40
2.000000000
100
AcDbArc
 50
0.000000000
 51
180.000000000
  0
LINE
  5
A21
330
A02
100
AcDbEntity
  8
View012
100
AcDbLine
 10
69.492811199
 20
137.500000000
 30
0.000000000
 11
69.492811199
 21
72.500000000
 31
0.000000000
  0
ARC
  5
A22
330
A02
100
AcDbEntity
  8
View012
100
AcDbCircle
 10
71.492811199
 20
72.500000000
 30
0.000000000
 40
2.000000000
100
AcDbArc
 50
180.000000000
 51
0.000000000
  0
LINE
  5
A23
330
A02
100
AcDbEntity
  8
View012
100
AcDbLine
 10
73.492811199
 20
137.500000000
 30
0.000000000
 11
73.492811199
 21
72.500000000
 31
0.000000000
  0
ARC
  5
A24
330
A02
100
AcDbEntity
  8
View012
100
AcDbCircle
 10
78.159477866
 20
137.500000000
 30
0.000000000
 40
2.000000000
100
AcDbArc
 50
0.000000000
 51
180.000000000
  0
LINE
  5
A25
330
A02
100
AcDbEntity
  8
View012
100
AcDbLine
 10
76.159477866
 20
137.500000000
 30
0.000000000
 11
76.159477866
 21
72.500000000
 31
0.000000000
  0
ARC
  5
A26
330
A02
100
AcDbEntity
  8
View012
100
AcDbCircle
 10
78.159477866
 20
72.500000000
 30
0.000000000
 40
2.000000000
100
AcDbArc
 50
180.000000000
 51
0.000000000
  0
LINE
  5
A27
330
A02
100
AcDbEntity
  8
View012
100
AcDbLine
 10
80.159477866
 20
137.500000000
 30
0.000000000
 11
80.159477866
 21
72.500000000
 31
0.000000000
  0
LINE
  5
A28
330
A02
100
AcDbEntity
  8
View012
100
AcDbLine
 10
45.159477866
 20
57.000000000
 30
0.000000000
 11
71.159477866
 21
57.000000000
 31
0.000000000
  0
LINE
  5
A29
330
A02
100
AcDbEntity
  8
View012
100
AcDbLine
 10
71.159477866
 20
60.000000000
 30
0.000000000
 11
71.159477866
 21
57.000000000
 31
0.000000000
  0
LINE
  5
A2A
330
A02
100
AcDbEntity
  8
View012
100
AcDbLine
 10
45.159477866
 20
60.000000000
 30
0.000000000
 11
71.159477866
 21
60.000000000
 31
0.000000000
  0
LINE
  5
A2B
330
A02
100
AcDbEntity
  8
View012
100
AcDbLine
 10
45.159477866
 20
57.000000000
 30
0.000000000
 11
45.159477866
 21
60.000000000
 31
0.000000000
  0
LINE
  5
A2C
330
A02
100
AcDbEntity
  8
View012
100
AcDbLine
 10
45.159477866
 20
150.000000000
 30
0.000000000
 11
71.159477866
 21
150.000000000
 31
0.000000000
  0
LINE
  5
A2D
330
A02
100
AcDbEntity
  8
View012
100
AcDbLine
 10
71.159477866
 20
150.000000000
 30
0.000000000
 11
71.159477866
 21
153.000000000
 31
0.000000000
  0
LINE
  5
A2E
330
A02
100
AcDbEntity
  8
View012
100
AcDbLine
 10
71.159477866
 20
153.000000000
 30
0.000000000
 11
45.159477866
 21
153.000000000
 31
0.000000000
  0
LINE
  5
A2F
330
A02
100
AcDbEntity
  8
View012
100
AcDbLine
 10
45.159477866
 20
153.000000000
 30
0.000000000
 11
45.159477866
 21
150.000000000
 31
0.000000000
  0
LINE
  5
A30
330
A02
100
AcDbEntity
  8
View012
100
AcDbLine
 10
28.159477866
 20
95.000000000
 30
0.000000000
 11
28.159477866
 21
115.000000000
 31
0.000000000
  0
LINE
  5
A31
330
A02
100
AcDbEntity
  8
View012
100
AcDbLine
 10
28.159477866
 20
115.000000000
 30
0.000000000
 11
25.159477866
 21
115.000000000
 31
0.000000000
  0
LINE
  5
A32
330
A02
100
AcDbEntity
  8
View012
100
AcDbLine
 10
25.159477866
 20
115.000000000
 30
0.000000000
 11
25.159477866
 21
95.000000000
 31
0.000000000
  0
LINE
  5
A33
330
A02
100
AcDbEntity
  8
View012
100
AcDbLine
 10
25.159477866
 20
95.000000000
 30
0.000000000
 11
28.159477866
 21
95.000000000
 31
0.000000000
  0
LINE
  5
A34
330
A02
100
AcDbEntity
  8
View012
100
AcDbLine
 10
91.159477866
 20
95.000000000
 30
0.000000000
 11
91.159477866
 21
115.000000000
 31
0.000000000
  0
LINE
  5
A35
330
A02
100
AcDbEntity
  8
View012
100
AcDbLine
 10
88.159477866
 20
115.000000000
 30
0.000000000
 11
91.159477866
 21
115.000000000
 31
0.000000000
  0
LINE
  5
A36
330
A02
100
AcDbEntity
  8
View012
100
AcDbLine
 10
88.159477866
 20
95.000000000
 30
0.000000000
 11
88.159477866
 21
115.000000000
 31
0.000000000
  0
LINE
  5
A37
330
A02
100
AcDbEntity
  8
View012
100
AcDbLine
 10
91.159477866
 20
95.000000000
 30
0.000000000
 11
88.159477866
 21
95.000000000
 31
0.000000000
  0
LINE
  5
A38
330
A02
100
AcDbEntity
  8
View013
100
AcDbLine
 10
192.968785471
 20
57.000000000
 30
0.000000000
 11
192.968785471
 21
95.000000000
 31
0.000000000
  0
LINE
  5
A39
330
A02
100
AcDbEntity
  8
View013
100
AcDbLine
 10
192.968785471
 20
95.000000000
 30
0.000000000
 11
195.968785471
 21
95.000000000
 31
0.000000000
  0
LINE
  5
A3A
330
A02
100
AcDbEntity
  8
View013
100
AcDbLine
 10
212.968785471
 20
57.000000000
 30
0.000000000
 11
192.968785471
 21
57.000000000
 31
0.000000000
  0
LINE
  5
A3B
330
A02
100
AcDbEntity
  8
View013
100
AcDbLine
 10
212.968785471
 20
57.000000000
 30
0.000000000
 11
212.968785471
 21
60.000000000
 31
0.000000000
  0
LINE
  5
A3C
330
A02
100
AcDbEntity
  8
View013
100
AcDbLine
 10
212.968785471
 20
60.000000000
 30
0.000000000
 11
238.968785471
 21
60.000000000
 31
0.000000000
  0
LINE
  5
A3D
330
A02
100
AcDbEntity
  8
View013
100
AcDbLine
 10
238.968785471
 20
60.000000000
 30
0.000000000
 11
238.968785471
 21
57.000000000
 31
0.000000000
  0
LINE
  5
A3E
330
A02
100
AcDbEntity
  8
View013
100
AcDbLine
 10
195.968785471
 20
95.000000000
 30
0.000000000
 11
195.968785471
 21
115.000000000
 31
0.000000000
  0
LINE
  5
A3F
330
A02
100
AcDbEntity
  8
View013
100
AcDbLine
 10
258.968785471
 20
57.000000000
 30
0.000000000
 11
238.968785471
 21
57.000000000
 31
0.000000000
  0
LINE
  5
A40
330
A02
100
AcDbEntity
  8
View013
100
AcDbLine
 10
195.968785471
 20
115.000000000
 30
0.000000000
 11
192.968785471
 21
115.000000000
 31
0.000000000
  0
LINE
  5
A41
330
A02
100
AcDbEntity
  8
View013
100
AcDbLine
 10
258.968785471
 20
95.000000000
 30
0.000000000
 11
258.968785471
 21
57.000000000
 31
0.000000000
  0
LINE
  5
A42
330
A02
100
AcDbEntity
  8
View013
100
AcDbLine
 10
192.968785471
 20
115.000000000
 30
0.000000000
 11
192.968785471
 21
153.000000000
 31
0.000000000
  0
LINE
  5
A43
330
A02
100
AcDbEntity
  8
View013
100
AcDbLine
 10
258.968785471
 20
95.000000000
 30
0.000000000
 11
255.968785471
 21
95.000000000
 31
0.000000000
  0
LINE
  5
A44
330
A02
100
AcDbEntity
  8
View013
100
AcDbLine
 10
192.968785471
 20
153.000000000
 30
0.000000000
 11
212.968785471
 21
153.000000000
 31
0.000000000
  0
LINE
  5
A45
330
A02
100
AcDbEntity
  8
View013
100
AcDbLine
 10
255.968785471
 20
95.000000000
 30
0.000000000
 11
255.968785471
 21
115.000000000
 31
0.000000000
  0
LINE
  5
A46
330
A02
100
AcDbEntity
  8
View013
100
AcDbLine
 10
212.968785471
 20
153.000000000
 30
0.000000000
 11
212.968785471
 21
150.000000000
 31
0.000000000
  0
LINE
  5
A47
330
A02
100
AcDbEntity
  8
View013
100
AcDbLine
 10
255.968785471
 20
115.000000000
 30
0.000000000
 11
258.968785471
 21
115.000000000
 31
0.000000000
  0
LINE
  5
A48
330
A02
100
AcDbEntity
  8
View013
100
AcDbLine
 10
212.968785471
 20
150.000000000
 30
0.000000000
 11
238.968785471
 21
150.000000000
 31
0.000000000
  0
LINE
  5
A49
330
A02
100
AcDbEntity
  8
View013
100
AcDbLine
 10
258.968785471
 20
153.000000000
 30
0.000000000
 11
258.968785471
 21
115.000000000
 31
0.000000000
  0
LINE
  5
A4A
330
A02
100
AcDbEntity
  8
View013
100
AcDbLine
 10
238.968785471
 20
150.000000000
 30
0.000000000
 11
238.968785471
 21
153.000000000
 31
0.000000000
  0
LINE
  5
A4B
330
A02
100
AcDbEntity
  8
View013
100
AcDbLine
 10
238.968785471
 20
153.000000000
 30
0.000000000
 11
258.968785471
 21
153.000000000
 31
0.000000000
  0
CIRCLE
  5
A4C
330
A02
100
AcDbEntity
  8
View013
100
AcDbCircle
 10
225.968785471
 20
118.000000000
 30
0.000000000
 40
21.000000000
  0
LINE
  5
A4D
330
A02
100
AcDbEntity
  8
View013
100
AcDbLine
 10
205.968785471
 20
86.000000000
 30
0.000000000
 11
205.968785471
 21
94.000000000
 31
0.000000000
  0
ARC
  5
A4E
330
A02
100
AcDbEntity
  8
View013
100
AcDbCircle
 10
207.968785471
 20
94.000000000
 30
0.000000000
 40
2.000000000
100
AcDbArc
 50
90.000000000
 51
180.000000000
  0
LINE
  5
A4F
330
A02
100
AcDbEntity
  8
View013
100
AcDbLine
 10
207.968785471
 20
96.000000000
 30
0.000000000
 11
238.968785471
 21
96.000000000
 31
0.000000000
  0
ARC
  5
A50
330
A02
100
AcDbEntity
  8
View013
100
AcDbCircle
 10
238.968785471
 20
94.000000000
 30
0.000000000
 40
2.000000000
100
AcDbArc
 50
0.000000000
 51
90.000000000
  0
LINE
  5
A51
330
A02
100
AcDbEntity
  8
View013
100
AcDbLine
 10
240.968785471
 20
94.000000000
 30
0.000000000
 11
240.968785471
 21
86.000000000
 31
0.000000000
  0
ARC
  5
A52
330
A02
100
AcDbEntity
  8
View013
100
AcDbCircle
 10
238.968785471
 20
86.000000000
 30
0.000000000
 40
2.000000000
100
AcDbArc
 50
-90.000000000
 51
0.000000000
  0
LINE
  5
A53
330
A02
100
AcDbEntity
  8
View013
100
AcDbLine
 10
238.968785471
 20
84.000000000
 30
0.000000000
 11
207.968785471
 21
84.000000000
 31
0.000000000
  0
ARC
  5
A54
330
A02
100
AcDbEntity
  8
View013
100
AcDbCircle
 10
207.968785471
 20
86.000000000
 30
0.000000000
 40
2.000000000
100
AcDbArc
 50
180.000000000
 51
-90.000000000
  0
CIRCLE
  5
A55
330
A02
100
AcDbEntity
  8
View013
100
AcDbCircle
 10
225.968785471
 20
69.000000000
 30
0.000000000
 40
5.000000000
  0
LINE
  5
A56
330
A02
100
AcDbEntity
  8
View014
100
AcDbLine
 10
135.500000000
 20
205.500000000
 30
0.000000000
 11
135.500000000
 21
202.500000000
 31
0.000000000
  0
LINE
  5
A57
330
A02
100
AcDbEntity
  8
View014
100
AcDbLine
 10
161.500000000
 20
205.500000000
 30
0.000000000
 11
135.500000000
 21
205.500000000
 31
0.000000000
  0
LINE
  5
A58
330
A02
100
AcDbEntity
  8
View014
100
AcDbLine
 10
135.500000000
 20
202.500000000
 30
0.000000000
 11
112.500000000
 21
202.500000000
 31
0.000000000
  0
LINE
  5
A59
330
A02
100
AcDbEntity
  8
View014
100
AcDbLine
 10
112.500000000
 20
202.500000000
 30
0.000000000
 11
112.500000000
 21
7.500000000
 31
0.000000000
  0
LINE
  5
A5A
330
A02
100
AcDbEntity
  8
View014
100
AcDbLine
 10
135.500000000
 20
4.500000000
 30
0.000000000
 11
161.500000000
 21
4.500000000
 31
0.000000000
  0
LINE
  5
A5B
330
A02
100
AcDbEntity
  8
View014
100
AcDbLine
 10
135.500000000
 20
4.500000000
 30
0.000000000
 11
135.500000000
 21
7.500000000
 31
0.000000000
  0
LINE
  5
A5C
330
A02
100
AcDbEntity
  8
View014
100
AcDbLine
 10
112.500000000
 20
7.500000000
 30
0.000000000
 11
135.500000000
 21
7.500000000
 31
0.000000000
  0
LINE
  5
A5D
330
A02
100
AcDbEntity
  8
View014
100
AcDbLine
 10
161.500000000
 20
205.500000000
 30
0.000000000
 11
161.500000000
 21
202.500000000
 31
0.000000000
  0
LINE
  5
A5E
330
A02
100
AcDbEntity
  8
View014
100
AcDbLine
 10
161.500000000
 20
4.500000000
 30
0.000000000
 11
161.500000000
 21
7.500000000
 31
0.000000000
  0
LINE
  5
A5F
330
A02
100
AcDbEntity
  8
View014
100
AcDbLine
 10
184.500000000
 20
202.500000000
 30
0.000000000
 11
184.500000000
 21
7.500000000
 31
0.000000000
  0
LINE
  5
A60
330
A02
100
AcDbEntity
  8
View014
100
AcDbLine
 10
176.000000000
 20
35.000000000
 30
0.000000000
 11
176.000000000
 21
22.000000000
 31
0.000000000
  0
ARC
  5
A61
330
A02
100
AcDbEntity
  8
View014
100
AcDbCircle
 10
173.500000000
 20
35.000000000
 30
0.000000000
 40
2.500000000
100
AcDbArc
 50
0.000000000
 51
90.000000000
  0
LINE
  5
A62
330
A02
100
AcDbEntity
  8
View014
100
AcDbLine
 10
123.500000000
 20
37.500000000
 30
0.000000000
 11
173.500000000
 21
37.500000000
 31
0.000000000
  0
ARC
  5
A63
330
A02
100
AcDbEntity
  8
View014
100
AcDbCircle
 10
123.500000000
 20
35.000000000
 30
0.000000000
 40
2.500000000
100
AcDbArc
 50
90.000000000
 51
180.000000000
  0
LINE
  5
A64
330
A02
100
AcDbEntity
  8
View014
100
AcDbLine
 10
121.000000000
 20
22.000000000
 30
0.000000000
 11
121.000000000
 21
35.000000000
 31
0.000000000
  0
ARC
  5
A65
330
A02
100
AcDbEntity
  8
View014
100
AcDbCircle
 10
123.500000000
 20
22.000000000
 30
0.000000000
 40
2.500000000
100
AcDbArc
 50
180.000000000
 51
-90.000000000
  0
LINE
  5
A66
330
A02
100
AcDbEntity
  8
View014
100
AcDbLine
 10
173.500000000
 20
19.500000000
 30
0.000000000
 11
123.500000000
 21
19.500000000
 31
0.000000000
  0
ARC
  5
A67
330
A02
100
AcDbEntity
  8
View014
100
AcDbCircle
 10
173.500000000
 20
22.000000000
 30
0.000000000
 40
2.500000000
100
AcDbArc
 50
-90.000000000
 51
0.000000000
  0
LINE
  5
A68
330
A02
100
AcDbEntity
  8
View014
100
AcDbLine
 10
146.000000000
 20
64.000000000
 30
0.000000000
 11
146.000000000
 21
59.000000000
 31
0.000000000
  0
ARC
  5
A69
330
A02
100
AcDbEntity
  8
View014
100
AcDbCircle
 10
144.500000000
 20
64.000000000
 30
0.000000000
 40
1.500000000
100
AcDbArc
 50
-0.000000000
 51
90.000000000
  0
LINE
  5
A6A
330
A02
100
AcDbEntity
  8
View014
100
AcDbLine
 10
122.500000000
 20
65.500000000
 30
0.000000000
 11
144.500000000
 21
65.500000000
 31
0.000000000
  0
ARC
  5
A6B
330
A02
100
AcDbEntity
  8
View014
100
AcDbCircle
 10
122.500000000
 20
64.000000000
 30
0.000000000
 40
1.500000000
100
AcDbArc
 50
90.000000000
 51
-180.000000000
  0
LINE
  5
A6C
330
A02
100
AcDbEntity
  8
View014
100
AcDbLine
 10
121.000000000
 20
59.000000000
 30
0.000000000
 11
121.000000000
 21
64.000000000
 31
0.000000000
  0
ARC
  5
A6D
330
A02
100
AcDbEntity
  8
View014
100
AcDbCircle
 10
122.500000000
 20
59.000000000
 30
0.000000000
 40
1.500000000
100
AcDbArc
 50
-180.000000000
 51
-90.000000000
  0
LINE
  5
A6E
330
A02
100
AcDbEntity
  8
View014
100
AcDbLine
 10
144.500000000
 20
57.500000000
 30
0.000000000
 11
122.500000000
 21
57.500000000
 31
0.000000000
  0
ARC
  5
A6F
330
A02
100
AcDbEntity
  8
View014
100
AcDbCircle
 10
144.500000000
 20
59.000000000
 30
0.000000000
 40
1.500000000
100
AcDbArc
 50
-90.000000000
 51
-0.000000000
  0
LINE
  5
A70
330
A02
100
AcDbEntity
  8
View014
100
AcDbLine
 10
178.500000000
 20
175.000000000
 30
0.000000000
 11
181.500000000
 21
175.000000000
 31
0.000000000
  0
LINE
  5
A71
330
A02
100
AcDbEntity
  8
View014
100
AcDbLine
 10
178.500000000
 20
155.000000000
 30
0.000000000
 11
178.500000000
 21
175.000000000
 31
0.000000000
  0
LINE
  5
A72
330
A02
100
AcDbEntity
  8
View014
100
AcDbLine
 10
181.500000000
 20
155.000000000
 30
0.000000000
 11
178.500000000
 21
155.000000000
 31
0.000000000
  0
LINE
  5
A73
330
A02
100
AcDbEntity
  8
View014
100
AcDbLine
 10
181.500000000
 20
155.000000000
 30
0.000000000
 11
181.500000000
 21
175.000000000
 31
0.000000000
  0
LINE
  5
A74
330
A02
100
AcDbEntity
  8
View014
100
AcDbLine
 10
178.500000000
 20
115.000000000
 30
0.000000000
 11
181.500000000
 21
115.000000000
 31
0.000000000
  0
LINE
  5
A75
330
A02
100
AcDbEntity
  8
View014
100
AcDbLine
 10
178.500000000
 20
95.000000000
 30
0.000000000
 11
178.500000000
 21
115.000000000
 31
0.000000000
  0
LINE
  5
A76
330
A02
100
AcDbEntity
  8
View014
100
AcDbLine
 10
181.500000000
 20
95.000000000
 30
0.000000000
 11
178.500000000
 21
95.000000000
 31
0.000000000
  0
LINE
  5
A77
330
A02
100
AcDbEntity
  8
View014
100
AcDbLine
 10
181.500000000
 20
95.000000000
 30
0.000000000
 11
181.500000000
 21
115.000000000
 31
0.000000000
  0
LINE
  5
A78
330
A02
100
AcDbEntity
  8
View014
100
AcDbLine
 10
181.500000000
 20
55.000000000
 30
0.000000000
 11
178.500000000
 21
55.000000000
 31
0.000000000
  0
LINE
  5
A79
330
A02
100
AcDbEntity
  8
View014
100
AcDbLine
 10
178.500000000
 20
55.000000000
 30
0.000000000
 11
178.500000000
 21
35.000000000
 31
0.000000000
  0
LINE
  5
A7A
330
A02
100
AcDbEntity
  8
View014
100
AcDbLine
 10
178.500000000
 20
35.000000000
 30
0.000000000
 11
181.500000000
 21
35.000000000
 31
0.000000000
  0
LINE
  5
A7B
330
A02
100
AcDbEntity
  8
View014
100
AcDbLine
 10
181.500000000
 20
35.000000000
 30
0.000000000
 11
181.500000000
 21
55.000000000
 31
0.000000000
  0
LINE
  5
A7C
330
A02
100
AcDbEntity
  8
View014
100
AcDbLine
 10
118.500000000
 20
35.000000000
 30
0.000000000
 11
115.500000000
 21
35.000000000
 31
0.000000000
  0
LINE
  5
A7D
330
A02
100
AcDbEntity
  8
View014
100
AcDbLine
 10
118.500000000
 20
55.000000000
 30
0.000000000
 11
118.500000000
 21
35.000000000
 31
0.000000000
  0
LINE
  5
A7E
330
A02
100
AcDbEntity
  8
View014
100
AcDbLine
 10
115.500000000
 20
55.000000000
 30
0.000000000
 11
118.500000000
 21
55.000000000
 31
0.000000000
  0
LINE
  5
A7F
330
A02
100
AcDbEntity
  8
View014
100
AcDbLine
 10
115.500000000
 20
35.000000000
 30
0.000000000
 11
115.500000000
 21
55.000000000
 31
0.000000000
  0
LINE
  5
A80
330
A02
100
AcDbEntity
  8
View014
100
AcDbLine
 10
115.500000000
 20
155.000000000
 30
0.000000000
 11
118.500000000
 21
155.000000000
 31
0.000000000
  0
LINE
  5
A81
330
A02
100
AcDbEntity
  8
View014
100
AcDbLine
 10
118.500000000
 20
155.000000000
 30
0.000000000
 11
118.500000000
 21
175.000000000
 31
0.000000000
  0
LINE
  5
A82
330
A02
100
AcDbEntity
  8
View014
100
AcDbLine
 10
118.500000000
 20
175.000000000
 30
0.000000000
 11
115.500000000
 21
175.000000000
 31
0.000000000
  0
LINE
  5
A83
330
A02
100
AcDbEntity
  8
View014
100
AcDbLine
 10
115.500000000
 20
155.000000000
 30
0.000000000
 11
115.500000000
 21
175.000000000
 31
0.000000000
  0
LINE
  5
A84
330
A02
100
AcDbEntity
  8
View014
100
AcDbLine
 10
115.500000000
 20
95.000000000
 30
0.000000000
 11
118.500000000
 21
95.000000000
 31
0.000000000
  0
LINE
  5
A85
330
A02
100
AcDbEntity
  8
View014
100
AcDbLine
 10
118.500000000
 20
95.000000000
 30
0.000000000
 11
118.500000000
 21
115.000000000
 31
0.000000000
  0
LINE
  5
A86
330
A02
100
AcDbEntity
  8
View014
100
AcDbLine
 10
118.500000000
 20
115.000000000
 30
0.000000000
 11
115.500000000
 21
115.000000000
 31
0.000000000
  0
LINE
  5
A87
330
A02
100
AcDbEntity
  8
View014
100
AcDbLine
 10
115.500000000
 20
95.000000000
 30
0.000000000
 11
115.500000000
 21
115.000000000
 31
0.000000000
  0
LINE
  5
A88
330
A02
100
AcDbEntity
  8
View014
100
AcDbLine
 10
161.500000000
 20
7.500000000
 30
0.000000000
 11
184.500000000
 21
7.500000000
 31
0.000000000
  0
LINE
  5
A89
330
A02
100
AcDbEntity
  8
View014
100
AcDbLine
 10
161.500000000
 20
202.500000000
 30
0.000000000
 11
184.500000000
 21
202.500000000
 31
0.000000000
  0
ENDSEC
  0
SECTION
  2
OBJECTS
  0
DICTIONARY
  5
F000
330
0
100
AcDbDictionary
  3
ACAD_GROUP
350
F001
  0
DICTIONARY
  5
F001
330
F000
100
AcDbDictionary
  0
ENDSEC
  0
EOF