999
"DXF R12 Output" (www.mydxf.blogspot.com)
 0 
SECTION
 2 
HEADER
 9 
$ACADVER
 1 
AC1009
 9 
$EXTMIN
 10 
 0 
 20 
 0 
 9 
$EXTMAX
 10 
 8.5 
 20 
 11 
 0 
ENDSEC
 0 
SECTION
 2 
ENTITIES
0
LINE
8
View006
10
181.695980
20
86.274600
11
151.695972
21
86.274600
0
LINE
8
View006
10
151.695972
20
91.275219
11
151.695972
21
86.274600
0
LINE
8
View006
10
181.695980
20
91.275219
11
181.695980
21
86.274600
0
LINE
8
View006
10
201.696073
20
91.275219
11
181.695980
21
91.275219
0
LINE
8
View006
10
131.696143
20
91.275219
11
151.695972
21
91.275219
0
LINE
8
View006
10
201.696073
20
118.774388
11
201.696073
21
91.275219
0
LINE
8
View006
10
131.696143
20
91.275219
11
131.696143
21
118.774388
0
LINE
8
View006
10
201.696073
20
118.774388
11
196.695984
21
118.774388
0
LINE
8
View006
10
131.696143
20
118.774388
11
136.695968
21
118.774388
0
LINE
8
View006
10
196.695984
20
118.774388
11
196.695984
21
138.774217
0
LINE
8
View006
10
136.695968
20
118.774388
11
136.695968
21
138.774217
0
LINE
8
View006
10
196.695984
20
138.774217
11
201.696073
21
138.774217
0
LINE
8
View006
10
136.695968
20
138.774217
11
131.696143
21
138.774217
0
LINE
8
View006
10
201.696073
20
178.774140
11
201.696073
21
138.774217
0
LINE
8
View006
10
131.696143
20
138.774217
11
131.696143
21
178.774140
0
LINE
8
View006
10
196.695984
20
178.774140
11
201.696073
21
178.774140
0
LINE
8
View006
10
136.695968
20
178.774140
11
131.696143
21
178.774140
0
LINE
8
View006
10
196.695984
20
198.774233
11
196.695984
21
178.774140
0
LINE
8
View006
10
136.695968
20
198.774233
11
136.695968
21
178.774140
0
LINE
8
View006
10
201.696073
20
198.774233
11
196.695984
21
198.774233
0
LINE
8
View006
10
131.696143
20
198.774233
11
136.695968
21
198.774233
0
LINE
8
View006
10
201.696073
20
238.774156
11
201.696073
21
198.774233
0
LINE
8
View006
10
131.696143
20
198.774233
11
131.696143
21
238.774156
0
LINE
8
View006
10
196.695984
20
238.774156
11
201.696073
21
238.774156
0
LINE
8
View006
10
136.695968
20
238.774156
11
131.696143
21
238.774156
0
LINE
8
View006
10
196.695984
20
258.774250
11
196.695984
21
238.774156
0
LINE
8
View006
10
136.695968
20
258.774250
11
136.695968
21
238.774156
0
LINE
8
View006
10
201.696073
20
258.774250
11
196.695984
21
258.774250
0
LINE
8
View006
10
131.696143
20
258.774250
11
136.695968
21
258.774250
0
LINE
8
View006
10
201.696073
20
286.274213
11
201.696073
21
258.774250
0
LINE
8
View006
10
131.696143
20
258.774250
11
131.696143
21
286.274213
0
LINE
8
View006
10
201.696073
20
286.274213
11
181.695980
21
286.274213
0
LINE
8
View006
10
131.696143
20
286.274213
11
151.695972
21
286.274213
0
LINE
8
View006
10
181.695980
20
286.274213
11
181.695980
21
291.274038
0
LINE
8
View006
10
151.695972
20
286.274213
11
151.695972
21
291.274038
0
LINE
8
View006
10
151.695972
20
291.274038
11
181.695980
21
291.274038
0
LINE
8
View006
10
169.196021
20
147.774273
11
169.196021
21
142.774183
0
LINE
8
View006
10
169.195986
20
142.774300
11
169.313864
21
142.190433
0
LINE
8
View006
10
169.313864
20
142.190433
11
169.635326
21
141.713641
0
LINE
8
View006
10
169.635326
20
141.713641
11
170.112117
21
141.392179
0
LINE
8
View006
10
170.112117
20
141.392179
11
170.695984
21
141.274302
0
LINE
8
View006
10
170.695942
20
141.274262
11
192.696018
21
141.274262
0
LINE
8
View006
10
192.695957
20
141.274302
11
193.279824
21
141.392179
0
LINE
8
View006
10
193.279824
20
141.392179
11
193.756616
21
141.713641
0
LINE
8
View006
10
193.756616
20
141.713641
11
194.078078
21
142.190433
0
LINE
8
View006
10
194.078078
20
142.190433
11
194.195955
21
142.774300
0
LINE
8
View006
10
194.195939
20
142.774183
11
194.195939
21
147.774273
0
LINE
8
View006
10
194.195955
20
147.774294
11
194.078078
21
148.358161
0
LINE
8
View006
10
194.078078
20
148.358161
11
193.756616
21
148.834952
0
LINE
8
View006
10
193.756616
20
148.834952
11
193.279824
21
149.156414
0
LINE
8
View006
10
193.279824
20
149.156414
11
192.695957
21
149.274292
0
LINE
8
View006
10
192.696018
20
149.274194
11
170.695942
21
149.274194
0
LINE
8
View006
10
170.695984
20
149.274292
11
170.112117
21
149.156414
0
LINE
8
View006
10
170.112117
20
149.156414
11
169.635326
21
148.834952
0
LINE
8
View006
10
169.635326
20
148.834952
11
169.313864
21
148.358161
0
LINE
8
View006
10
169.313864
20
148.358161
11
169.195986
21
147.774294
0
LINE
8
View006
10
139.196013
20
118.774388
11
139.196013
21
105.774367
0
LINE
8
View006
10
139.196023
20
105.774341
11
139.392487
21
104.801231
0
LINE
8
View006
10
139.392487
20
104.801231
11
139.928257
21
104.006579
0
LINE
8
View006
10
139.928257
20
104.006579
11
140.722910
21
103.470811
0
LINE
8
View006
10
140.722910
20
103.470811
11
141.696020
21
103.274349
0
LINE
8
View006
10
141.696057
20
103.274058
11
191.695894
21
103.274058
0
LINE
8
View006
10
191.695958
20
103.274349
11
192.669068
21
103.470811
0
LINE
8
View006
10
192.669068
20
103.470811
11
193.463721
21
104.006579
0
LINE
8
View006
10
193.463721
20
104.006579
11
193.999491
21
104.801231
0
LINE
8
View006
10
193.999491
20
104.801231
11
194.195955
21
105.774341
0
LINE
8
View006
10
194.195939
20
105.774367
11
194.195939
21
118.774388
0
LINE
8
View006
10
194.195955
20
118.774330
11
194.005654
21
119.731038
0
LINE
8
View006
10
194.005654
20
119.731038
11
193.463723
21
120.542095
0
LINE
8
View006
10
193.463723
20
120.542095
11
192.652665
21
121.084026
0
LINE
8
View006
10
192.652665
20
121.084026
11
191.695958
21
121.274327
0
LINE
8
View006
10
191.695894
20
121.274433
11
141.696057
21
121.274433
0
LINE
8
View006
10
141.696020
20
121.274327
11
140.739313
21
121.084026
0
LINE
8
View006
10
140.739313
20
121.084026
11
139.928255
21
120.542095
0
LINE
8
View006
10
139.928255
20
120.542095
11
139.386324
21
119.731038
0
LINE
8
View006
10
139.386324
20
119.731038
11
139.196023
21
118.774330
0
LINE
8
View007
10
22.340549
20
258.774250
11
22.340549
21
238.774156
0
LINE
8
View007
10
22.340549
20
258.774250
11
27.340639
21
258.774250
0
LINE
8
View007
10
27.340639
20
258.774250
11
27.340639
21
286.274213
0
LINE
8
View007
10
27.340639
20
286.274213
11
62.340472
21
286.274213
0
LINE
8
View007
10
62.340472
20
286.274213
11
62.340472
21
291.274038
0
LINE
8
View007
10
82.340566
20
291.274038
11
62.340472
21
291.274038
0
LINE
8
View007
10
82.340566
20
286.274213
11
82.340566
21
291.274038
0
LINE
8
View007
10
117.340399
20
286.274213
11
82.340566
21
286.274213
0
LINE
8
View007
10
117.340399
20
258.774250
11
117.340399
21
286.274213
0
LINE
8
View007
10
122.340488
20
258.774250
11
117.340399
21
258.774250
0
LINE
8
View007
10
122.340488
20
238.774156
11
122.340488
21
258.774250
0
LINE
8
View007
10
117.340399
20
238.774156
11
122.340488
21
238.774156
0
LINE
8
View007
10
117.340399
20
198.774233
11
117.340399
21
238.774156
0
LINE
8
View007
10
122.340488
20
198.774233
11
117.340399
21
198.774233
0
LINE
8
View007
10
122.340488
20
178.774140
11
122.340488
21
198.774233
0
LINE
8
View007
10
122.340488
20
178.774140
11
117.340399
21
178.774140
0
LINE
8
View007
10
117.340399
20
178.774140
11
117.340399
21
138.774217
0
LINE
8
View007
10
117.340399
20
138.774217
11
122.340488
21
138.774217
0
LINE
8
View007
10
122.340488
20
118.774388
11
122.340488
21
138.774217
0
LINE
8
View007
10
122.340488
20
118.774388
11
117.340399
21
118.774388
0
LINE
8
View007
10
117.340399
20
118.774388
11
117.340399
21
91.275219
0
LINE
8
View007
10
117.340399
20
91.275219
11
82.340566
21
91.275219
0
LINE
8
View007
10
82.340566
20
91.275219
11
82.340566
21
86.274600
0
LINE
8
View007
10
62.340472
20
86.274600
11
82.340566
21
86.274600
0
LINE
8
View007
10
62.340472
20
91.275219
11
62.340472
21
86.274600
0
LINE
8
View007
10
27.340639
20
91.275219
11
62.340472
21
91.275219
0
LINE
8
View007
10
27.340639
20
118.774388
11
27.340639
21
91.275219
0
LINE
8
View007
10
22.340549
20
118.774388
11
27.340639
21
118.774388
0
LINE
8
View007
10
22.340549
20
138.774217
11
22.340549
21
118.774388
0
LINE
8
View007
10
27.340639
20
138.774217
11
22.340549
21
138.774217
0
LINE
8
View007
10
27.340639
20
178.774140
11
27.340639
21
138.774217
0
LINE
8
View007
10
22.340549
20
178.774140
11
27.340639
21
178.774140
0
LINE
8
View007
10
22.340549
20
198.774233
11
22.340549
21
178.774140
0
LINE
8
View007
10
22.340549
20
198.774233
11
27.340639
21
198.774233
0
LINE
8
View007
10
27.340639
20
198.774233
11
27.340639
21
238.774156
0
LINE
8
View007
10
27.340639
20
238.774156
11
22.340549
21
238.774156
0
LINE
8
View
10
231.720309
20
86.406600
11
261.720317
21
86.406600
0
LINE
8
View
10
261.720317
20
91.407219
11
261.720317
21
86.406600
0
LINE
8
View
10
231.720309
20
91.407219
11
231.720309
21
86.406600
0
LINE
8
View
10
211.720215
20
91.407219
11
231.720309
21
91.407219
0
LINE
8
View
10
281.720146
20
91.407219
11
261.720317
21
91.407219
0
LINE
8
View
10
211.720215
20
118.906388
11
211.720215
21
91.407219
0
LINE
8
View
10
281.720146
20
91.407219
11
281.720146
21
118.906388
0
LINE
8
View
10
211.720215
20
118.906388
11
216.720305
21
118.906388
0
LINE
8
View
10
281.720146
20
118.906388
11
276.720321
21
118.906388
0
LINE
8
View
10
216.720305
20
118.906388
11
216.720305
21
138.906217
0
LINE
8
View
10
276.720321
20
118.906388
11
276.720321
21
138.906217
0
LINE
8
View
10
216.720305
20
138.906217
11
211.720215
21
138.906217
0
LINE
8
View
10
276.720321
20
138.906217
11
281.720146
21
138.906217
0
LINE
8
View
10
211.720215
20
178.906140
11
211.720215
21
138.906217
0
LINE
8
View
10
281.720146
20
138.906217
11
281.720146
21
178.906140
0
LINE
8
View
10
216.720305
20
178.906140
11
211.720215
21
178.906140
0
LINE
8
View
10
276.720321
20
178.906140
11
281.720146
21
178.906140
0
LINE
8
View
10
216.720305
20
198.906233
11
216.720305
21
178.906140
0
LINE
8
View
10
276.720321
20
198.906233
11
276.720321
21
178.906140
0
LINE
8
View
10
211.720215
20
198.906233
11
216.720305
21
198.906233
0
LINE
8
View
10
281.720146
20
198.906233
11
276.720321
21
198.906233
0
LINE
8
View
10
211.720215
20
238.906156
11
211.720215
21
198.906233
0
LINE
8
View
10
281.720146
20
198.906233
11
281.720146
21
238.906156
0
LINE
8
View
10
216.720305
20
238.906156
11
211.720215
21
238.906156
0
LINE
8
View
10
276.720321
20
238.906156
11
281.720146
21
238.906156
0
LINE
8
View
10
216.720305
20
258.906250
11
216.720305
21
238.906156
0
LINE
8
View
10
276.720321
20
258.906250
11
276.720321
21
238.906156
0
LINE
8
View
10
211.720215
20
258.906250
11
216.720305
21
258.906250
0
LINE
8
View
10
281.720146
20
258.906250
11
276.720321
21
258.906250
0
LINE
8
View
10
211.720215
20
286.406213
11
211.720215
21
258.906250
0
LINE
8
View
10
281.720146
20
258.906250
11
281.720146
21
286.406213
0
LINE
8
View
10
211.720215
20
286.406213
11
231.720309
21
286.406213
0
LINE
8
View
10
281.720146
20
286.406213
11
261.720317
21
286.406213
0
LINE
8
View
10
231.720309
20
286.406213
11
231.720309
21
291.406038
0
LINE
8
View
10
261.720317
20
286.406213
11
261.720317
21
291.406038
0
LINE
8
View
10
261.720317
20
291.406038
11
231.720309
21
291.406038
0
LINE
8
View
10
241.720223
20
105.406305
11
251.720138
21
105.406305
0
LINE
8
View
10
251.720267
20
97.406347
11
252.526408
21
97.487613
0
LINE
8
View
10
252.526408
20
97.487613
11
253.277250
21
97.720688
0
LINE
8
View
10
253.277250
20
97.720688
11
254.548698
21
98.577922
0
LINE
8
View
10
254.548698
20
98.577922
11
255.405932
21
99.849370
0
LINE
8
View
10
255.405932
20
99.849370
11
255.639007
21
100.600212
0
LINE
8
View
10
255.639007
20
100.600212
11
255.720272
21
101.406353
0
LINE
8
View
10
255.720272
20
101.406353
11
255.639007
21
102.212493
0
LINE
8
View
10
255.639007
20
102.212493
11
255.405932
21
102.963335
0
LINE
8
View
10
255.405932
20
102.963335
11
254.548698
21
104.234784
0
LINE
8
View
10
254.548698
20
104.234784
11
253.277250
21
105.092018
0
LINE
8
View
10
253.277250
20
105.092018
11
252.526408
21
105.325092
0
LINE
8
View
10
252.526408
20
105.325092
11
251.720267
21
105.406358
0
LINE
8
View
10
241.720223
20
97.405315
11
251.720138
21
97.405315
0
LINE
8
View
10
241.720279
20
105.406358
11
240.914138
21
105.325092
0
LINE
8
View
10
240.914138
20
105.325092
11
240.163296
21
105.092018
0
LINE
8
View
10
240.163296
20
105.092018
11
238.891848
21
104.234784
0
LINE
8
View
10
238.891848
20
104.234784
11
238.034614
21
102.963335
0
LINE
8
View
10
238.034614
20
102.963335
11
237.801539
21
102.212493
0
LINE
8
View
10
237.801539
20
102.212493
11
237.720273
21
101.406353
0
LINE
8
View
10
237.720273
20
101.406353
11
237.801539
21
100.600212
0
LINE
8
View
10
237.801539
20
100.600212
11
238.034614
21
99.849370
0
LINE
8
View
10
238.034614
20
99.849370
11
238.891848
21
98.577922
0
LINE
8
View
10
238.891848
20
98.577922
11
240.163296
21
97.720688
0
LINE
8
View
10
240.163296
20
97.720688
11
240.914138
21
97.487613
0
LINE
8
View
10
240.914138
20
97.487613
11
241.720279
21
97.406347
0
LINE
8
View003
10
291.361286
20
258.906250
11
291.361286
21
238.906156
0
LINE
8
View003
10
296.361110
20
238.906156
11
291.361286
21
238.906156
0
LINE
8
View003
10
291.361286
20
258.906250
11
296.361110
21
258.906250
0
LINE
8
View003
10
296.361110
20
258.906250
11
296.361110
21
286.406213
0
LINE
8
View003
10
296.361110
20
286.406213
11
331.361208
21
286.406213
0
LINE
8
View003
10
296.361110
20
198.906233
11
296.361110
21
238.906156
0
LINE
8
View003
10
331.361208
20
286.406213
11
331.361208
21
291.406038
0
LINE
8
View003
10
291.361286
20
198.906233
11
296.361110
21
198.906233
0
LINE
8
View003
10
351.361037
20
291.406038
11
331.361208
21
291.406038
0
LINE
8
View003
10
291.361286
20
198.906233
11
291.361286
21
178.906140
0
LINE
8
View003
10
351.361037
20
286.406213
11
351.361037
21
291.406038
0
LINE
8
View003
10
291.361286
20
178.906140
11
296.361110
21
178.906140
0
LINE
8
View003
10
386.361135
20
286.406213
11
351.361037
21
286.406213
0
LINE
8
View003
10
296.361110
20
178.906140
11
296.361110
21
138.906217
0
LINE
8
View003
10
386.361135
20
258.906250
11
386.361135
21
286.406213
0
LINE
8
View003
10
296.361110
20
138.906217
11
291.361286
21
138.906217
0
LINE
8
View003
10
391.360960
20
258.906250
11
386.361135
21
258.906250
0
LINE
8
View003
10
291.361286
20
138.906217
11
291.361286
21
118.906388
0
LINE
8
View003
10
391.360960
20
238.906156
11
391.360960
21
258.906250
0
LINE
8
View003
10
291.361286
20
118.906388
11
296.361110
21
118.906388
0
LINE
8
View003
10
386.361135
20
238.906156
11
391.360960
21
238.906156
0
LINE
8
View003
10
296.361110
20
118.906388
11
296.361110
21
91.407219
0
LINE
8
View003
10
386.361135
20
198.906233
11
386.361135
21
238.906156
0
LINE
8
View003
10
296.361110
20
91.407219
11
331.361208
21
91.407219
0
LINE
8
View003
10
391.360960
20
198.906233
11
386.361135
21
198.906233
0
LINE
8
View003
10
331.361208
20
91.407219
11
331.361208
21
86.406600
0
LINE
8
View003
10
391.360960
20
178.906140
11
391.360960
21
198.906233
0
LINE
8
View003
10
331.361208
20
86.406600
11
351.361037
21
86.406600
0
LINE
8
View003
10
391.360960
20
178.906140
11
386.361135
21
178.906140
0
LINE
8
View003
10
351.361037
20
91.407219
11
351.361037
21
86.406600
0
LINE
8
View003
10
386.361135
20
178.906140
11
386.361135
21
138.906217
0
LINE
8
View003
10
386.361135
20
91.407219
11
351.361037
21
91.407219
0
LINE
8
View003
10
386.361135
20
138.906217
11
391.360960
21
138.906217
0
LINE
8
View003
10
386.361135
20
118.906388
11
386.361135
21
91.407219
0
LINE
8
View003
10
391.360960
20
118.906388
11
391.360960
21
138.906217
0
LINE
8
View003
10
391.360960
20
118.906388
11
386.361135
21
118.906388
0
LINE
8
View003
10
303.861194
20
109.406351
11
303.055054
21
109.325085
0
LINE
8
View003
10
303.055054
20
109.325085
11
302.304212
21
109.092010
0
LINE
8
View003
10
302.304212
20
109.092010
11
301.032764
21
108.234776
0
LINE
8
View003
10
301.032764
20
108.234776
11
300.175529
21
106.963328
0
LINE
8
View003
10
300.175529
20
106.963328
11
299.942455
21
106.212486
0
LINE
8
View003
10
299.942455
20
106.212486
11
299.861189
21
105.406345
0
LINE
8
View003
10
299.861189
20
105.406345
11
299.942455
21
104.600205
0
LINE
8
View003
10
299.942455
20
104.600205
11
300.175529
21
103.849363
0
LINE
8
View003
10
300.175529
20
103.849363
11
301.032764
21
102.577914
0
LINE
8
View003
10
301.032764
20
102.577914
11
302.304212
21
101.720680
0
LINE
8
View003
10
302.304212
20
101.720680
11
303.055054
21
101.487606
0
LINE
8
View003
10
303.055054
20
101.487606
11
303.861194
21
101.406340
0
LINE
8
View003
10
303.861245
20
101.405810
11
315.861142
21
101.405810
0
LINE
8
View003
10
315.861179
20
101.406340
11
316.667320
21
101.487606
0
LINE
8
View003
10
316.667320
20
101.487606
11
317.418162
21
101.720680
0
LINE
8
View003
10
317.418162
20
101.720680
11
318.689610
21
102.577914
0
LINE
8
View003
10
318.689610
20
102.577914
11
319.546844
21
103.849363
0
LINE
8
View003
10
319.546844
20
103.849363
11
319.779919
21
104.600205
0
LINE
8
View003
10
319.779919
20
104.600205
11
319.861184
21
105.406345
0
LINE
8
View003
10
319.861184
20
105.406345
11
319.779919
21
106.212486
0
LINE
8
View003
10
319.779919
20
106.212486
11
319.546844
21
106.963328
0
LINE
8
View003
10
319.546844
20
106.963328
11
318.689610
21
108.234776
0
LINE
8
View003
10
318.689610
20
108.234776
11
317.418162
21
109.092010
0
LINE
8
View003
10
317.418162
20
109.092010
11
316.667320
21
109.325085
0
LINE
8
View003
10
316.667320
20
109.325085
11
315.861179
21
109.406351
0
LINE
8
View003
10
303.861245
20
109.406800
11
315.861142
21
109.406800
0
LINE
8
View003
10
314.861180
20
135.406308
11
314.759106
21
136.413544
0
LINE
8
View003
10
314.759106
20
136.413544
11
314.467445
21
137.351627
0
LINE
8
View003
10
314.467445
20
137.351627
11
314.006286
21
138.200477
0
LINE
8
View003
10
314.006286
20
138.200477
11
313.395720
21
138.940016
0
LINE
8
View003
10
313.395720
20
138.940016
11
312.655837
21
139.550165
0
LINE
8
View003
10
312.655837
20
139.550165
11
311.806727
21
140.010846
0
LINE
8
View003
10
311.806727
20
140.010846
11
310.868480
21
140.301978
0
LINE
8
View003
10
310.868480
20
140.301978
11
309.861187
21
140.403485
0
LINE
8
View003
10
309.861187
20
140.403485
11
308.853893
21
140.301978
0
LINE
8
View003
10
308.853893
20
140.301978
11
307.915647
21
140.010846
0
LINE
8
View003
10
307.915647
20
140.010846
11
307.066537
21
139.550165
0
LINE
8
View003
10
307.066537
20
139.550165
11
306.326654
21
138.940016
0
LINE
8
View003
10
306.326654
20
138.940016
11
305.716088
21
138.200477
0
LINE
8
View003
10
305.716088
20
138.200477
11
305.254929
21
137.351627
0
LINE
8
View003
10
305.254929
20
137.351627
11
304.963268
21
136.413544
0
LINE
8
View003
10
304.963268
20
136.413544
11
304.861194
21
135.406308
0
LINE
8
View003
10
304.861194
20
135.406308
11
304.963268
21
134.399072
0
LINE
8
View003
10
304.963268
20
134.399072
11
305.254929
21
133.460989
0
LINE
8
View003
10
305.254929
20
133.460989
11
305.716088
21
132.612139
0
LINE
8
View003
10
305.716088
20
132.612139
11
306.326654
21
131.872600
0
LINE
8
View003
10
306.326654
20
131.872600
11
307.066537
21
131.262451
0
LINE
8
View003
10
307.066537
20
131.262451
11
307.915647
21
130.801771
0
LINE
8
View003
10
307.915647
20
130.801771
11
308.853893
21
130.510638
0
LINE
8
View003
10
308.853893
20
130.510638
11
309.861187
21
130.409132
0
LINE
8
View003
10
309.861187
20
130.409132
11
310.868480
21
130.510638
0
LINE
8
View003
10
310.868480
20
130.510638
11
311.806727
21
130.801771
0
LINE
8
View003
10
311.806727
20
130.801771
11
312.655837
21
131.262451
0
LINE
8
View003
10
312.655837
20
131.262451
11
313.395720
21
131.872600
0
LINE
8
View003
10
313.395720
20
131.872600
11
314.006286
21
132.612139
0
LINE
8
View003
10
314.006286
20
132.612139
11
314.467445
21
133.460989
0
LINE
8
View003
10
314.467445
20
133.460989
11
314.759106
21
134.399072
0
LINE
8
View003
10
314.759106
20
134.399072
11
314.861180
21
135.406308
0
LINE
8
View003
10
314.861180
20
135.406308
11
314.861180
21
135.406308
0
LINE
8
View004
10
391.492291
20
75.874931
11
351.492368
21
75.874931
0
LINE
8
View004
10
391.492291
20
55.875103
11
391.492291
21
75.874931
0
LINE
8
View004
10
391.492291
20
55.875103
11
386.492201
21
55.875103
0
LINE
8
View004
10
386.492201
20
55.875103
11
386.492201
21
25.875094
0
LINE
8
View004
10
351.492368
20
75.874931
11
351.492368
21
70.875107
0
LINE
8
View004
10
386.492201
20
25.875094
11
391.492291
21
25.875094
0
LINE
8
View004
10
351.492368
20
70.875107
11
331.492275
21
70.875107
0
LINE
8
View004
10
391.492291
20
5.875266
11
391.492291
21
25.875094
0
LINE
8
View004
10
331.492275
20
70.875107
11
331.492275
21
75.874931
0
LINE
8
View004
10
351.492368
20
5.875266
11
391.492291
21
5.875266
0
LINE
8
View004
10
331.492275
20
75.874931
11
291.492352
21
75.874931
0
LINE
8
View004
10
351.492368
20
5.875266
11
351.492368
21
10.875090
0
LINE
8
View004
10
291.492352
20
75.874931
11
291.492352
21
55.875103
0
LINE
8
View004
10
351.492368
20
10.875090
11
331.492275
21
10.875090
0
LINE
8
View004
10
291.492352
20
55.875103
11
296.492442
21
55.875103
0
LINE
8
View004
10
331.492275
20
10.875090
11
331.492275
21
5.875266
0
LINE
8
View004
10
296.492442
20
55.875103
11
296.492442
21
25.875094
0
LINE
8
View004
10
291.492352
20
5.875266
11
331.492275
21
5.875266
0
LINE
8
View004
10
296.492442
20
25.875094
11
291.492352
21
25.875094
0
LINE
8
View004
10
291.492352
20
25.875094
11
291.492352
21
5.875266
0
LINE
8
View004
10
328.492330
20
19.875125
11
331.273978
21
20.059800
0
LINE
8
View004
10
331.273978
20
20.059800
11
333.971593
21
20.602049
0
LINE
8
View004
10
333.971593
20
20.602049
11
336.554574
21
21.484201
0
LINE
8
View004
10
336.554574
20
21.484201
11
338.992316
21
22.688588
0
LINE
8
View004
10
338.992316
20
22.688588
11
341.254217
21
24.197541
0
LINE
8
View004
10
341.254217
20
24.197541
11
343.309674
21
25.993392
0
LINE
8
View004
10
343.309674
20
25.993392
11
345.128082
21
28.058472
0
LINE
8
View004
10
345.128082
20
28.058472
11
346.678840
21
30.375112
0
LINE
8
View004
10
346.678840
20
30.375112
11
347.909730
21
32.876427
0
LINE
8
View004
10
347.909730
20
32.876427
11
348.788938
21
35.483755
0
LINE
8
View004
10
348.788938
20
35.483755
11
349.316462
21
38.161758
0
LINE
8
View004
10
349.316462
20
38.161758
11
349.492303
21
40.875098
0
LINE
8
View004
10
349.492303
20
40.875098
11
349.316462
21
43.588439
0
LINE
8
View004
10
349.316462
20
43.588439
11
348.788938
21
46.266442
0
LINE
8
View004
10
348.788938
20
46.266442
11
347.909730
21
48.873770
0
LINE
8
View004
10
347.909730
20
48.873770
11
346.678840
21
51.375085
0
LINE
8
View004
10
346.678840
20
51.375085
11
345.128082
21
53.691725
0
LINE
8
View004
10
345.128082
20
53.691725
11
343.309674
21
55.756805
0
LINE
8
View004
10
343.309674
20
55.756805
11
341.254217
21
57.552656
0
LINE
8
View004
10
341.254217
20
57.552656
11
338.992316
21
59.061609
0
LINE
8
View004
10
338.992316
20
59.061609
11
336.554574
21
60.265996
0
LINE
8
View004
10
336.554574
20
60.265996
11
333.971593
21
61.148148
0
LINE
8
View004
10
333.971593
20
61.148148
11
331.273978
21
61.690397
0
LINE
8
View004
10
331.273978
20
61.690397
11
328.492330
21
61.875072
0
LINE
8
View004
10
328.492330
20
61.875072
11
325.710682
21
61.690397
0
LINE
8
View004
10
325.710682
20
61.690397
11
323.013066
21
61.148148
0
LINE
8
View004
10
323.013066
20
61.148148
11
320.430085
21
60.265996
0
LINE
8
View004
10
320.430085
20
60.265996
11
317.992343
21
59.061609
0
LINE
8
View004
10
317.992343
20
59.061609
11
315.730442
21
57.552656
0
LINE
8
View004
10
315.730442
20
57.552656
11
313.674985
21
55.756805
0
LINE
8
View004
10
313.674985
20
55.756805
11
311.856577
21
53.691725
0
LINE
8
View004
10
311.856577
20
53.691725
11
310.305819
21
51.375085
0
LINE
8
View004
10
310.305819
20
51.375085
11
309.074929
21
48.873770
0
LINE
8
View004
10
309.074929
20
48.873770
11
308.195721
21
46.266442
0
LINE
8
View004
10
308.195721
20
46.266442
11
307.668197
21
43.588439
0
LINE
8
View004
10
307.668197
20
43.588439
11
307.492356
21
40.875098
0
LINE
8
View004
10
307.492356
20
40.875098
11
307.668197
21
38.161758
0
LINE
8
View004
10
307.668197
20
38.161758
11
308.195721
21
35.483755
0
LINE
8
View004
10
308.195721
20
35.483755
11
309.074929
21
32.876427
0
LINE
8
View004
10
309.074929
20
32.876427
11
310.305819
21
30.375112
0
LINE
8
View004
10
310.305819
20
30.375112
11
311.856577
21
28.058472
0
LINE
8
View004
10
311.856577
20
28.058472
11
313.674985
21
25.993392
0
LINE
8
View004
10
313.674985
20
25.993392
11
315.730442
21
24.197541
0
LINE
8
View004
10
315.730442
20
24.197541
11
317.992343
21
22.688588
0
LINE
8
View004
10
317.992343
20
22.688588
11
320.430085
21
21.484201
0
LINE
8
View004
10
320.430085
20
21.484201
11
323.013066
21
20.602049
0
LINE
8
View004
10
323.013066
20
20.602049
11
325.710682
21
20.059800
0
LINE
8
View004
10
325.710682
20
20.059800
11
328.492330
21
19.875125
0
LINE
8
View004
10
328.492330
20
19.875125
11
328.492330
21
19.875125
0
LINE
8
View004
10
360.492159
20
60.875192
11
352.492228
21
60.875192
0
LINE
8
View004
10
352.492299
20
60.875073
11
351.713810
21
60.717903
0
LINE
8
View004
10
351.713810
20
60.717903
11
351.078089
21
60.289287
0
LINE
8
View004
10
351.078089
20
60.289287
11
350.649473
21
59.653565
0
LINE
8
View004
10
350.649473
20
59.653565
11
350.492303
21
58.875077
0
LINE
8
View004
10
350.492245
20
58.874945
11
350.492245
21
27.875077
0
LINE
8
View004
10
350.492303
20
27.875114
11
350.649473
21
27.096626
0
LINE
8
View004
10
350.649473
20
27.096626
11
351.078089
21
26.460904
0
LINE
8
View004
10
351.078089
20
26.460904
11
351.713810
21
26.032288
0
LINE
8
View004
10
351.713810
20
26.032288
11
352.492299
21
25.875118
0
LINE
8
View004
10
352.492228
20
25.875094
11
360.492159
21
25.875094
0
LINE
8
View004
10
360.492289
20
25.875118
11
361.257655
21
26.027359
0
LINE
8
View004
10
361.257655
20
26.027359
11
361.906501
21
26.460903
0
LINE
8
View004
10
361.906501
20
26.460903
11
362.340046
21
27.109749
0
LINE
8
View004
10
362.340046
20
27.109749
11
362.492288
21
27.875114
0
LINE
8
View004
10
362.492407
20
27.875077
11
362.492407
21
58.874945
0
LINE
8
View004
10
362.492288
20
58.875077
11
362.340046
21
59.640443
0
LINE
8
View004
10
362.340046
20
59.640443
11
361.906501
21
60.289288
0
LINE
8
View004
10
361.906501
20
60.289288
11
361.257655
21
60.722833
0
LINE
8
View004
10
361.257655
20
60.722833
11
360.492289
21
60.875073
0
LINE
8
View004
10
377.492268
20
35.875104
11
378.796854
21
36.048181
0
LINE
8
View004
10
378.796854
20
36.048181
11
379.992265
21
36.544976
0
LINE
8
View004
10
379.992265
20
36.544976
11
381.020207
21
37.331835
0
LINE
8
View004
10
381.020207
20
37.331835
11
381.822390
21
38.375101
0
LINE
8
View004
10
381.822390
20
38.375101
11
382.324794
21
39.591445
0
LINE
8
View004
10
382.324794
20
39.591445
11
382.492262
21
40.875098
0
LINE
8
View004
10
382.492262
20
40.875098
11
382.324794
21
42.158752
0
LINE
8
View004
10
382.324794
20
42.158752
11
381.822390
21
43.375096
0
LINE
8
View004
10
381.822390
20
43.375096
11
381.020207
21
44.418362
0
LINE
8
View004
10
381.020207
20
44.418362
11
379.992265
21
45.205221
0
LINE
8
View004
10
379.992265
20
45.205221
11
378.796854
21
45.702016
0
LINE
8
View004
10
378.796854
20
45.702016
11
377.492268
21
45.875093
0
LINE
8
View004
10
377.492268
20
45.875093
11
376.187681
21
45.702016
0
LINE
8
View004
10
376.187681
20
45.702016
11
374.992271
21
45.205221
0
LINE
8
View004
10
374.992271
20
45.205221
11
373.964328
21
44.418362
0
LINE
8
View004
10
373.964328
20
44.418362
11
373.162146
21
43.375096
0
LINE
8
View004
10
373.162146
20
43.375096
11
372.659741
21
42.158752
0
LINE
8
View004
10
372.659741
20
42.158752
11
372.492273
21
40.875098
0
LINE
8
View004
10
372.492273
20
40.875098
11
372.659741
21
39.591445
0
LINE
8
View004
10
372.659741
20
39.591445
11
373.162146
21
38.375101
0
LINE
8
View004
10
373.162146
20
38.375101
11
373.964328
21
37.331835
0
LINE
8
View004
10
373.964328
20
37.331835
11
374.992271
21
36.544976
0
LINE
8
View004
10
374.992271
20
36.544976
11
376.187681
21
36.048181
0
LINE
8
View004
10
376.187681
20
36.048181
11
377.492268
21
35.875104
0
LINE
8
View004
10
377.492268
20
35.875104
11
377.492268
21
35.875104
0
LINE
8
View005
10
122.340291
20
76.007592
11
82.340368
21
76.007592
0
LINE
8
View005
10
82.340368
20
76.007592
11
82.340368
21
71.007502
0
LINE
8
View005
10
122.340291
20
56.007498
11
122.340291
21
76.007592
0
LINE
8
View005
10
122.340291
20
56.007498
11
117.340201
21
56.007498
0
LINE
8
View005
10
117.340201
20
56.007498
11
117.340201
21
26.007755
0
LINE
8
View005
10
117.340201
20
26.007755
11
122.340291
21
26.007755
0
LINE
8
View005
10
82.340368
20
71.007502
11
62.340275
21
71.007502
0
LINE
8
View005
10
122.340291
20
6.007661
11
122.340291
21
26.007755
0
LINE
8
View005
10
62.340275
20
71.007502
11
62.340275
21
76.007592
0
LINE
8
View005
10
82.340368
20
6.007661
11
122.340291
21
6.007661
0
LINE
8
View005
10
62.340275
20
76.007592
11
22.340352
21
76.007592
0
LINE
8
View005
10
82.340368
20
6.007661
11
82.340368
21
11.007751
0
LINE
8
View005
10
22.340352
20
76.007592
11
22.340352
21
56.007498
0
LINE
8
View005
10
82.340368
20
11.007751
11
62.340275
21
11.007751
0
LINE
8
View005
10
22.340352
20
56.007498
11
27.340442
21
56.007498
0
LINE
8
View005
10
62.340275
20
11.007751
11
62.340275
21
6.007661
0
LINE
8
View005
10
27.340442
20
56.007498
11
27.340442
21
26.007755
0
LINE
8
View005
10
22.340352
20
6.007661
11
62.340275
21
6.007661
0
LINE
8
View005
10
27.340442
20
26.007755
11
22.340352
21
26.007755
0
LINE
8
View005
10
22.340352
20
26.007755
11
22.340352
21
6.007661
0
LINE
8
View005
10
104.840242
20
59.007605
11
39.840401
21
59.007605
0
LINE
8
View005
10
104.840271
20
59.007586
11
105.618760
21
59.164756
0
LINE
8
View005
10
105.618760
20
59.164756
11
106.254483
21
59.593372
0
LINE
8
View005
10
106.254483
20
59.593372
11
106.683099
21
60.229094
0
LINE
8
View005
10
106.683099
20
60.229094
11
106.840269
21
61.007584
0
LINE
8
View005
10
106.840269
20
61.007584
11
106.683099
21
61.786073
0
LINE
8
View005
10
106.683099
20
61.786073
11
106.254483
21
62.421795
0
LINE
8
View005
10
106.254483
20
62.421795
11
105.618760
21
62.850411
0
LINE
8
View005
10
105.618760
20
62.850411
11
104.840271
21
63.007581
0
LINE
8
View005
10
104.840242
20
63.007571
11
39.840401
21
63.007571
0
LINE
8
View005
10
39.840353
20
63.007581
11
39.061864
21
62.850411
0
LINE
8
View005
10
39.061864
20
62.850411
11
38.426142
21
62.421795
0
LINE
8
View005
10
38.426142
20
62.421795
11
37.997526
21
61.786073
0
LINE
8
View005
10
37.997526
20
61.786073
11
37.840356
21
61.007584
0
LINE
8
View005
10
37.840356
20
61.007584
11
37.997526
21
60.229094
0
LINE
8
View005
10
37.997526
20
60.229094
11
38.426142
21
59.593372
0
LINE
8
View005
10
38.426142
20
59.593372
11
39.061864
21
59.164756
0
LINE
8
View005
10
39.061864
20
59.164756
11
39.840353
21
59.007586
0
LINE
8
View005
10
104.840242
20
52.340907
11
39.840401
21
52.340907
0
LINE
8
View005
10
104.840271
20
52.340928
11
105.618760
21
52.498098
0
LINE
8
View005
10
105.618760
20
52.498098
11
106.254483
21
52.926714
0
LINE
8
View005
10
106.254483
20
52.926714
11
106.683099
21
53.562436
0
LINE
8
View005
10
106.683099
20
53.562436
11
106.840269
21
54.340926
0
LINE
8
View005
10
106.840269
20
54.340926
11
106.683099
21
55.119415
0
LINE
8
View005
10
106.683099
20
55.119415
11
106.254483
21
55.755137
0
LINE
8
View005
10
106.254483
20
55.755137
11
105.618760
21
56.183753
0
LINE
8
View005
10
105.618760
20
56.183753
11
104.840271
21
56.340923
0
LINE
8
View005
10
104.840242
20
56.340873
11
39.840401
21
56.340873
0
LINE
8
View005
10
39.840353
20
56.340923
11
39.061864
21
56.183753
0
LINE
8
View005
10
39.061864
20
56.183753
11
38.426142
21
55.755137
0
LINE
8
View005
10
38.426142
20
55.755137
11
37.997526
21
55.119415
0
LINE
8
View005
10
37.997526
20
55.119415
11
37.840356
21
54.340926
0
LINE
8
View005
10
37.840356
20
54.340926
11
37.997526
21
53.562436
0
LINE
8
View005
10
37.997526
20
53.562436
11
38.426142
21
52.926714
0
LINE
8
View005
10
38.426142
20
52.926714
11
39.061864
21
52.498098
0
LINE
8
View005
10
39.061864
20
52.498098
11
39.840353
21
52.340928
0
LINE
8
View005
10
104.840242
20
45.674209
11
39.840401
21
45.674209
0
LINE
8
View005
10
104.840271
20
45.674270
11
105.618527
21
45.831649
0
LINE
8
View005
10
105.618527
20
45.831649
11
106.254013
21
46.260313
0
LINE
8
View005
10
106.254013
20
46.260313
11
106.682445
21
46.895954
0
LINE
8
View005
10
106.682445
20
46.895954
11
106.839541
21
47.674267
0
LINE
8
View005
10
106.839541
20
47.674267
11
106.682445
21
48.452580
0
LINE
8
View005
10
106.682445
20
48.452580
11
106.254013
21
49.088222
0
LINE
8
View005
10
106.254013
20
49.088222
11
105.618527
21
49.516886
0
LINE
8
View005
10
105.618527
20
49.516886
11
104.840271
21
49.674265
0
LINE
8
View005
10
104.840242
20
49.674175
11
39.840401
21
49.674175
0
LINE
8
View005
10
39.840353
20
49.674265
11
39.062098
21
49.516886
0
LINE
8
View005
10
39.062098
20
49.516886
11
38.426612
21
49.088222
0
LINE
8
View005
10
38.426612
20
49.088222
11
37.998179
21
48.452580
0
LINE
8
View005
10
37.998179
20
48.452580
11
37.841083
21
47.674267
0
LINE
8
View005
10
37.841083
20
47.674267
11
37.998179
21
46.895954
0
LINE
8
View005
10
37.998179
20
46.895954
11
38.426612
21
46.260313
0
LINE
8
View005
10
38.426612
20
46.260313
11
39.062098
21
45.831649
0
LINE
8
View005
10
39.062098
20
45.831649
11
39.840353
21
45.674270
0
LINE
8
View005
10
104.840242
20
39.007511
11
39.840401
21
39.007511
0
LINE
8
View005
10
104.840271
20
39.007612
11
105.840270
21
39.275561
0
LINE
8
View005
10
105.840270
20
39.275561
11
106.572320
21
40.007610
0
LINE
8
View005
10
106.572320
20
40.007610
11
106.840269
21
41.007609
0
LINE
8
View005
10
106.840269
20
41.007609
11
106.572320
21
42.007608
0
LINE
8
View005
10
106.572320
20
42.007608
11
105.840270
21
42.739658
0
LINE
8
View005
10
105.840270
20
42.739658
11
104.840271
21
43.007607
0
LINE
8
View005
10
39.840353
20
43.007607
11
38.840355
21
42.739658
0
LINE
8
View005
10
38.840355
20
42.739658
11
38.108305
21
42.007608
0
LINE
8
View005
10
38.108305
20
42.007608
11
37.840356
21
41.007609
0
LINE
8
View005
10
37.840356
20
41.007609
11
38.108305
21
40.007610
0
LINE
8
View005
10
38.108305
20
40.007610
11
38.840355
21
39.275561
0
LINE
8
View005
10
38.840355
20
39.275561
11
39.840353
21
39.007612
0
LINE
8
View005
10
104.840242
20
43.007477
11
39.840401
21
43.007477
0
LINE
8
View005
10
104.840242
20
32.341078
11
39.840401
21
32.341078
0
LINE
8
View005
10
104.840271
20
32.340954
11
105.840270
21
32.608902
0
LINE
8
View005
10
105.840270
20
32.608902
11
106.572320
21
33.340952
0
LINE
8
View005
10
106.572320
20
33.340952
11
106.840269
21
34.340951
0
LINE
8
View005
10
106.840269
20
34.340951
11
106.572320
21
35.340950
0
LINE
8
View005
10
106.572320
20
35.340950
11
105.840270
21
36.073000
0
LINE
8
View005
10
105.840270
20
36.073000
11
104.840271
21
36.340948
0
LINE
8
View005
10
104.840242
20
36.341044
11
39.840401
21
36.341044
0
LINE
8
View005
10
39.840353
20
36.340948
11
38.840355
21
36.073000
0
LINE
8
View005
10
38.840355
20
36.073000
11
38.108305
21
35.340950
0
LINE
8
View005
10
38.108305
20
35.340950
11
37.840356
21
34.340951
0
LINE
8
View005
10
37.840356
20
34.340951
11
38.108305
21
33.340952
0
LINE
8
View005
10
38.108305
20
33.340952
11
38.840355
21
32.608902
0
LINE
8
View005
10
38.840355
20
32.608902
11
39.840353
21
32.340954
0
LINE
8
View005
10
104.840242
20
25.674380
11
39.840401
21
25.674380
0
LINE
8
View005
10
104.840271
20
25.674295
11
105.618760
21
25.831465
0
LINE
8
View005
10
105.618760
20
25.831465
11
106.254483
21
26.260081
0
LINE
8
View005
10
106.254483
20
26.260081
11
106.683099
21
26.895804
0
LINE
8
View005
10
106.683099
20
26.895804
11
106.840269
21
27.674293
0
LINE
8
View005
10
106.840269
20
27.674293
11
106.683099
21
28.452782
0
LINE
8
View005
10
106.683099
20
28.452782
11
106.254483
21
29.088505
0
LINE
8
View005
10
106.254483
20
29.088505
11
105.618760
21
29.517121
0
LINE
8
View005
10
105.618760
20
29.517121
11
104.840271
21
29.674290
0
LINE
8
View005
10
104.840242
20
29.674346
11
39.840401
21
29.674346
0
LINE
8
View005
10
39.840353
20
29.674290
11
39.061864
21
29.517121
0
LINE
8
View005
10
39.061864
20
29.517121
11
38.426142
21
29.088505
0
LINE
8
View005
10
38.426142
20
29.088505
11
37.997526
21
28.452782
0
LINE
8
View005
10
37.997526
20
28.452782
11
37.840356
21
27.674293
0
LINE
8
View005
10
37.840356
20
27.674293
11
37.997526
21
26.895804
0
LINE
8
View005
10
37.997526
20
26.895804
11
38.426142
21
26.260081
0
LINE
8
View005
10
38.426142
20
26.260081
11
39.061864
21
25.831465
0
LINE
8
View005
10
39.061864
20
25.831465
11
39.840353
21
25.674295
0
LINE
8
View005
10
104.840242
20
19.007682
11
39.840401
21
19.007682
0
LINE
8
View005
10
104.840271
20
19.007637
11
105.840270
21
19.275586
0
LINE
8
View005
10
105.840270
20
19.275586
11
106.572320
21
20.007636
0
LINE
8
View005
10
106.572320
20
20.007636
11
106.840269
21
21.007635
0
LINE
8
View005
10
106.840269
20
21.007635
11
106.572320
21
22.007633
0
LINE
8
View005
10
106.572320
20
22.007633
11
105.840270
21
22.739683
0
LINE
8
View005
10
105.840270
20
22.739683
11
104.840271
21
23.007632
0
LINE
8
View005
10
104.840242
20
23.007648
11
39.840401
21
23.007648
0
LINE
8
View005
10
39.840353
20
23.007632
11
38.840355
21
22.739683
0
LINE
8
View005
10
38.840355
20
22.739683
11
38.108305
21
22.007633
0
LINE
8
View005
10
38.108305
20
22.007633
11
37.840356
21
21.007635
0
LINE
8
View005
10
37.840356
20
21.007635
11
38.108305
21
20.007636
0
LINE
8
View005
10
38.108305
20
20.007636
11
38.840355
21
19.275586
0
LINE
8
View005
10
38.840355
20
19.275586
11
39.840353
21
19.007637
 0 
ENDSEC
 0 
EOF